<svg width="1600" height="900" viewBox="0 0 1600 900" fill="none" xmlns="http://www.w3.org/2000/svg">
  <rect width="1600" height="900" fill="#F5EFE6"/>
  <rect x="48" y="48" width="1504" height="804" rx="36" fill="url(#bg)"/>
  <circle cx="1330" cy="190" r="170" fill="#E1B65B" fill-opacity="0.16"/>
  <circle cx="1260" cy="720" r="210" fill="#2C7A74" fill-opacity="0.12"/>
  <circle cx="280" cy="180" r="120" fill="#C75B33" fill-opacity="0.12"/>
  <text x="120" y="180" fill="#FFF8F1" font-family="Georgia, serif" font-size="88" font-weight="700">KitzChat</text>
  <text x="120" y="245" fill="#D7E5E3" font-family="Arial, sans-serif" font-size="30">AI workspace fuer Betrieb, Kundenchat, Agenten und Billing in einer App.</text>
  <rect x="120" y="310" width="400" height="210" rx="28" fill="#FFF8F1" fill-opacity="0.98"/>
  <text x="154" y="365" fill="#122033" font-family="Arial, sans-serif" font-size="22" font-weight="700">Operations Surface</text>
  <text x="154" y="410" fill="#395466" font-family="Arial, sans-serif" font-size="20">CRM, Analytics, Content,</text>
  <text x="154" y="440" fill="#395466" font-family="Arial, sans-serif" font-size="20">Cron, Compliance und Deploy-Status</text>
  <rect x="154" y="468" width="154" height="18" rx="9" fill="#C75B33" fill-opacity="0.18"/>
  <rect x="154" y="496" width="218" height="18" rx="9" fill="#2C7A74" fill-opacity="0.18"/>
  <rect x="550" y="310" width="480" height="260" rx="30" fill="#17304A"/>
  <text x="590" y="368" fill="#FFF8F1" font-family="Arial, sans-serif" font-size="26" font-weight="700">Customer + Agent Runtime</text>
  <rect x="590" y="402" width="164" height="42" rx="21" fill="#2C7A74"/>
  <text x="620" y="430" fill="#FFF8F1" font-family="Arial, sans-serif" font-size="20">Chat</text>
  <rect x="768" y="402" width="164" height="42" rx="21" fill="#C75B33"/>
  <text x="790" y="430" fill="#FFF8F1" font-family="Arial, sans-serif" font-size="20">Uploads</text>
  <rect x="590" y="462" width="164" height="42" rx="21" fill="#E1B65B"/>
  <text x="612" y="490" fill="#122033" font-family="Arial, sans-serif" font-size="20">Wallet</text>
  <rect x="768" y="462" width="164" height="42" rx="21" fill="#F5EFE6" fill-opacity="0.14" stroke="#8FB8B3"/>
  <text x="789" y="490" fill="#DCECE9" font-family="Arial, sans-serif" font-size="20">Agents</text>
  <text x="590" y="538" fill="#B7CDD1" font-family="Arial, sans-serif" font-size="19">Eine App, zwei Oberflaechen, ein gemeinsames Betriebsmodell.</text>
  <rect x="1060" y="310" width="392" height="448" rx="28" fill="#FFF8F1" fill-opacity="0.96"/>
  <text x="1096" y="368" fill="#122033" font-family="Arial, sans-serif" font-size="22" font-weight="700">Stack auf einen Blick</text>
  <text x="1096" y="420" fill="#395466" font-family="Arial, sans-serif" font-size="20">Next.js 16 + React 19</text>
  <text x="1096" y="462" fill="#395466" font-family="Arial, sans-serif" font-size="20">SQLite / lokale State-Dateien</text>
  <text x="1096" y="504" fill="#395466" font-family="Arial, sans-serif" font-size="20">PostgreSQL Wallet + Ledger</text>
  <text x="1096" y="546" fill="#395466" font-family="Arial, sans-serif" font-size="20">Stripe Checkout + Entitlements</text>
  <text x="1096" y="588" fill="#395466" font-family="Arial, sans-serif" font-size="20">Optional OpenAI, GA4, Plausible</text>
  <rect x="1096" y="632" width="216" height="18" rx="9" fill="#17304A" fill-opacity="0.10"/>
  <rect x="1096" y="662" width="172" height="18" rx="9" fill="#C75B33" fill-opacity="0.14"/>
  <rect x="1096" y="692" width="240" height="18" rx="9" fill="#2C7A74" fill-opacity="0.14"/>
  <rect x="120" y="610" width="910" height="148" rx="28" fill="#FFF8F1" fill-opacity="0.10" stroke="#50707A" stroke-opacity="0.45"/>
  <text x="160" y="670" fill="#FFF8F1" font-family="Arial, sans-serif" font-size="24" font-weight="700">Praxisfokus</text>
  <text x="160" y="714" fill="#D7E5E3" font-family="Arial, sans-serif" font-size="22">KitzChat ist nicht nur Chat-UI, sondern ein Arbeitsmodus fuer Kundenbetreuung, KI-Betrieb, Reports und kontrollierte Automatisierung.</text>
  <defs>
    <linearGradient id="bg" x1="48" y1="48" x2="1552" y2="852" gradientUnits="userSpaceOnUse">
      <stop stop-color="#102033"/>
      <stop offset="0.52" stop-color="#183452"/>
      <stop offset="1" stop-color="#24504D"/>
    </linearGradient>
  </defs>
</svg>