<svg xmlns="http://www.w3.org/2000/svg" width="1600" height="900" viewBox="0 0 1600 900">
  <defs>
    <linearGradient id="w" x1="0" y1="0" x2="1" y2="1">
      <stop offset="0" stop-color="#ffffff" stop-opacity="0.85"/>
      <stop offset="1" stop-color="#ffffff" stop-opacity="0.25"/>
    </linearGradient>
    <filter id="soft" x="-20%" y="-20%" width="140%" height="140%">
      <feGaussianBlur stdDeviation="1.2" />
    </filter>
  </defs>
  <rect width="1600" height="900" fill="transparent"/>
  <g fill="none" stroke="url(#w)" stroke-width="2" stroke-linecap="round" filter="url(#soft)" opacity="0.45">
    <path d="M-50 160 C 260 120, 420 40, 640 90 C 820 130, 980 260, 1200 230 C 1420 200, 1540 70, 1700 90"/>
    <path d="M-70 320 C 260 280, 420 190, 660 230 C 900 270, 1080 430, 1320 400 C 1500 378, 1600 290, 1710 310"/>
    <path d="M-60 520 C 260 480, 460 420, 700 460 C 960 500, 1140 650, 1400 620 C 1540 602, 1640 540, 1710 550"/>
    <path d="M-40 720 C 280 690, 520 650, 760 690 C 1040 736, 1240 860, 1540 830 C 1650 820, 1710 800, 1740 800"/>
  </g>
  <g fill="none" stroke="#ffffff" stroke-opacity="0.18" stroke-width="1">
    <path d="M120 40 L 220 160 L 110 240 L 260 340" />
    <path d="M1420 120 L 1320 220 L 1480 300 L 1360 420" />
    <path d="M520 760 L 640 650 L 760 780 L 880 640" />
  </g>
</svg>

